<mxfile host="Electron" modified="2023-11-15T17:56:41.131Z" agent="Mozilla/5.0 (Macintosh; Intel Mac OS X 10_15_7) AppleWebKit/537.36 (KHTML, like Gecko) draw.io/21.4.0 Chrome/112.0.5615.204 Electron/24.5.1 Safari/537.36" etag="rLRkJ98Kj1p7S5uawDJC" version="21.4.0" type="device">
  <diagram name="Page-1" id="DENDjmX3WPIOYaIXKvlf">
    <mxGraphModel dx="1174" dy="654" grid="1" gridSize="10" guides="1" tooltips="1" connect="1" arrows="1" fold="1" page="1" pageScale="1" pageWidth="3556" pageHeight="2709" math="0" shadow="0">
      <root>
        <mxCell id="0" />
        <mxCell id="1" parent="0" />
      </root>
    </mxGraphModel>
  </diagram>
</mxfile>
